<svg xmlns="http://www.w3.org/2000/svg" width="375" height="858" viewBox="0 0 375 858"><rect x="0" y="0" width="375" height="858" fill="#ffffff"/>
<text x="20" y="26" font-family="Inter, 'Segoe UI', Arial, sans-serif" font-size="11" font-weight="600" fill="#1a1a1a" text-anchor="start">09:41</text>
<text x="355" y="26" font-family="Inter, 'Segoe UI', Arial, sans-serif" font-size="10" font-weight="400" fill="#6b6b6b" text-anchor="end">LTE   100%</text>
<line x1="0" y1="38" x2="375" y2="38" stroke="#8a8a8a" stroke-width="1"/>
<text x="20" y="66" font-family="Inter, 'Segoe UI', Arial, sans-serif" font-size="17" font-weight="700" fill="#1a1a1a" text-anchor="start">Detail Gedung</text>
<text x="355" y="66" font-family="Inter, 'Segoe UI', Arial, sans-serif" font-size="11" font-weight="400" fill="#6b6b6b" text-anchor="end">2/7</text>
<line x1="0" y1="78" x2="375" y2="78" stroke="#8a8a8a" stroke-width="1"/>
<g transform="translate(0,78)"><text x="20" y="26" font-family="Inter, 'Segoe UI', Arial, sans-serif" font-size="19" font-weight="700" fill="#1a1a1a" text-anchor="start">Rektorat</text>
<text x="20" y="44" font-family="Inter, 'Segoe UI', Arial, sans-serif" font-size="11" font-weight="400" fill="#6b6b6b" text-anchor="start">Gedung parkir 3 lantai</text>
<text x="20" y="82" font-family="Inter, 'Segoe UI', Arial, sans-serif" font-size="12" font-weight="600" fill="#1a1a1a" text-anchor="start">Lantai 1</text>
<rect x="20" y="90" width="44" height="30" rx="4" fill="#f4f4f4" stroke="#1a1a1a" stroke-width="1.2"/>
<rect x="74" y="90" width="44" height="30" rx="4" fill="#f4f4f4" stroke="#1a1a1a" stroke-width="1.2"/>
<rect x="128" y="90" width="44" height="30" rx="4" fill="#f4f4f4" stroke="#1a1a1a" stroke-width="1.2"/>
<rect x="182" y="90" width="44" height="30" rx="4" fill="#f4f4f4" stroke="#1a1a1a" stroke-width="1.2"/>
<rect x="236" y="90" width="44" height="30" rx="4" fill="#f4f4f4" stroke="#1a1a1a" stroke-width="1.2"/>
<rect x="290" y="90" width="44" height="30" rx="4" fill="#f4f4f4" stroke="#1a1a1a" stroke-width="1.2"/>
<rect x="20" y="126" width="44" height="30" rx="4" fill="#f4f4f4" stroke="#1a1a1a" stroke-width="1.2"/>
<rect x="74" y="126" width="44" height="30" rx="4" fill="#f4f4f4" stroke="#1a1a1a" stroke-width="1.2"/>
<rect x="128" y="126" width="44" height="30" rx="4" fill="#f4f4f4" stroke="#1a1a1a" stroke-width="1.2"/>
<rect x="182" y="126" width="44" height="30" rx="4" fill="#f4f4f4" stroke="#1a1a1a" stroke-width="1.2"/>
<rect x="236" y="126" width="44" height="30" rx="4" fill="#f4f4f4" stroke="#1a1a1a" stroke-width="1.2"/>
<rect x="290" y="126" width="44" height="30" rx="4" fill="#f4f4f4" stroke="#1a1a1a" stroke-width="1.2"/>
<text x="355" y="158" font-family="Inter, 'Segoe UI', Arial, sans-serif" font-size="10" font-weight="400" fill="#6b6b6b" text-anchor="end">tersedia</text>
<text x="20" y="186" font-family="Inter, 'Segoe UI', Arial, sans-serif" font-size="12" font-weight="600" fill="#1a1a1a" text-anchor="start">Lantai 2</text>
<rect x="20" y="194" width="44" height="30" rx="4" fill="#f4f4f4" stroke="#1a1a1a" stroke-width="1.2"/>
<rect x="74" y="194" width="44" height="30" rx="4" fill="#f4f4f4" stroke="#1a1a1a" stroke-width="1.2"/>
<rect x="128" y="194" width="44" height="30" rx="4" fill="#f4f4f4" stroke="#1a1a1a" stroke-width="1.2"/>
<rect x="182" y="194" width="44" height="30" rx="4" fill="#f4f4f4" stroke="#1a1a1a" stroke-width="1.2"/>
<rect x="236" y="194" width="44" height="30" rx="4" fill="#f4f4f4" stroke="#1a1a1a" stroke-width="1.2"/>
<rect x="290" y="194" width="44" height="30" rx="4" fill="#f4f4f4" stroke="#1a1a1a" stroke-width="1.2"/>
<rect x="20" y="230" width="44" height="30" rx="4" fill="#f4f4f4" stroke="#1a1a1a" stroke-width="1.2"/>
<rect x="74" y="230" width="44" height="30" rx="4" fill="#f4f4f4" stroke="#1a1a1a" stroke-width="1.2"/>
<rect x="128" y="230" width="44" height="30" rx="4" fill="#f4f4f4" stroke="#1a1a1a" stroke-width="1.2"/>
<rect x="182" y="230" width="44" height="30" rx="4" fill="#f4f4f4" stroke="#1a1a1a" stroke-width="1.2"/>
<rect x="236" y="230" width="44" height="30" rx="4" fill="#f4f4f4" stroke="#1a1a1a" stroke-width="1.2"/>
<rect x="290" y="230" width="44" height="30" rx="4" fill="#f4f4f4" stroke="#1a1a1a" stroke-width="1.2"/>
<text x="355" y="262" font-family="Inter, 'Segoe UI', Arial, sans-serif" font-size="10" font-weight="400" fill="#6b6b6b" text-anchor="end">terbatas</text>
<text x="20" y="290" font-family="Inter, 'Segoe UI', Arial, sans-serif" font-size="12" font-weight="600" fill="#1a1a1a" text-anchor="start">Lantai 3</text>
<rect x="20" y="298" width="44" height="30" rx="4" fill="#f4f4f4" stroke="#1a1a1a" stroke-width="1.2"/>
<rect x="74" y="298" width="44" height="30" rx="4" fill="#f4f4f4" stroke="#1a1a1a" stroke-width="1.2"/>
<rect x="128" y="298" width="44" height="30" rx="4" fill="#f4f4f4" stroke="#1a1a1a" stroke-width="1.2"/>
<rect x="182" y="298" width="44" height="30" rx="4" fill="#f4f4f4" stroke="#1a1a1a" stroke-width="1.2"/>
<rect x="236" y="298" width="44" height="30" rx="4" fill="#f4f4f4" stroke="#1a1a1a" stroke-width="1.2"/>
<rect x="290" y="298" width="44" height="30" rx="4" fill="#f4f4f4" stroke="#1a1a1a" stroke-width="1.2"/>
<rect x="20" y="334" width="44" height="30" rx="4" fill="#f4f4f4" stroke="#1a1a1a" stroke-width="1.2"/>
<rect x="74" y="334" width="44" height="30" rx="4" fill="#f4f4f4" stroke="#1a1a1a" stroke-width="1.2"/>
<rect x="128" y="334" width="44" height="30" rx="4" fill="#f4f4f4" stroke="#1a1a1a" stroke-width="1.2"/>
<rect x="182" y="334" width="44" height="30" rx="4" fill="#f4f4f4" stroke="#1a1a1a" stroke-width="1.2"/>
<rect x="236" y="334" width="44" height="30" rx="4" fill="#f4f4f4" stroke="#1a1a1a" stroke-width="1.2"/>
<rect x="290" y="334" width="44" height="30" rx="4" fill="#f4f4f4" stroke="#1a1a1a" stroke-width="1.2"/>
<text x="355" y="366" font-family="Inter, 'Segoe UI', Arial, sans-serif" font-size="10" font-weight="400" fill="#6b6b6b" text-anchor="end">tersedia</text>
<rect x="20" y="388" width="335" height="46" rx="6" fill="#f4f4f4" stroke="#1a1a1a" stroke-width="1.5"/>
<text x="187.5" y="415.0" font-family="Inter, 'Segoe UI', Arial, sans-serif" font-size="12" font-weight="600" fill="#1a1a1a" text-anchor="middle">Pilih Lantai dan Lihat Slot Kosong</text></g>
<line x1="0" y1="814" x2="375" y2="814" stroke="#8a8a8a" stroke-width="1" stroke-dasharray="4 3"/>
<text x="20" y="828" font-family="Inter, 'Segoe UI', Arial, sans-serif" font-size="9.5" font-weight="400" fill="#6b6b6b" text-anchor="start">Grid slot = affordance utama. Warna belum dipakai (low-fidelity).</text>
<rect x="0" y="0" width="375" height="858" rx="0" fill="none" stroke="#8a8a8a" stroke-width="1"/>
</svg>
